<mxfile host="app.diagrams.net" modified="2024-07-07T07:28:31.063Z" agent="Mozilla/5.0 (Windows NT 10.0; Win64; x64) AppleWebKit/537.36 (KHTML, like Gecko) Chrome/126.0.0.0 Safari/537.36" etag="L6RsMW0IDFAcknYGhpii" version="24.6.4" type="device">
  <diagram name="Page-1" id="lNV7s-uu3u4P6WctyG_S">
    <mxGraphModel dx="1644" dy="484" grid="1" gridSize="10" guides="1" tooltips="1" connect="1" arrows="1" fold="1" page="1" pageScale="1" pageWidth="850" pageHeight="1100" math="0" shadow="0">
      <root>
        <mxCell id="0" />
        <mxCell id="1" parent="0" />
        <mxCell id="pcoZj8P89DkyJ81WNdUz-1" value="start" style="rounded=1;whiteSpace=wrap;html=1;fillColor=#CCFFCC;" parent="1" vertex="1">
          <mxGeometry x="70" y="50" width="120" height="60" as="geometry" />
        </mxCell>
        <mxCell id="pcoZj8P89DkyJ81WNdUz-6" value="end" style="rounded=1;whiteSpace=wrap;html=1;fillColor=#FF9999;" parent="1" vertex="1">
          <mxGeometry x="70" y="590" width="120" height="60" as="geometry" />
        </mxCell>
        <mxCell id="pcoZj8P89DkyJ81WNdUz-8" value="Homework (Task4)- store inputs in x, and y (int type).check the bigger number and print it.&amp;nbsp;" style="text;html=1;align=center;verticalAlign=middle;whiteSpace=wrap;rounded=0;" parent="1" vertex="1">
          <mxGeometry y="10" width="280" height="30" as="geometry" />
        </mxCell>
        <mxCell id="pcoZj8P89DkyJ81WNdUz-17" value="" style="edgeStyle=orthogonalEdgeStyle;rounded=0;orthogonalLoop=1;jettySize=auto;html=1;" parent="1" target="pcoZj8P89DkyJ81WNdUz-11" edge="1">
          <mxGeometry relative="1" as="geometry">
            <mxPoint x="130" y="290" as="sourcePoint" />
          </mxGeometry>
        </mxCell>
        <mxCell id="pcoZj8P89DkyJ81WNdUz-18" value="" style="edgeStyle=orthogonalEdgeStyle;rounded=0;orthogonalLoop=1;jettySize=auto;html=1;" parent="1" target="pcoZj8P89DkyJ81WNdUz-12" edge="1">
          <mxGeometry relative="1" as="geometry">
            <mxPoint x="130" y="390" as="sourcePoint" />
          </mxGeometry>
        </mxCell>
        <mxCell id="pcoZj8P89DkyJ81WNdUz-19" value="" style="edgeStyle=orthogonalEdgeStyle;rounded=0;orthogonalLoop=1;jettySize=auto;html=1;" parent="1" target="pcoZj8P89DkyJ81WNdUz-14" edge="1">
          <mxGeometry relative="1" as="geometry">
            <mxPoint x="130" y="490" as="sourcePoint" />
          </mxGeometry>
        </mxCell>
        <mxCell id="HlJgQoIas5wDGxNCZzIt-4" value="" style="edgeStyle=none;curved=1;rounded=0;orthogonalLoop=1;jettySize=auto;html=1;fontSize=12;startSize=8;endSize=8;" edge="1" parent="1" source="pcoZj8P89DkyJ81WNdUz-1" target="HlJgQoIas5wDGxNCZzIt-2">
          <mxGeometry relative="1" as="geometry">
            <mxPoint x="130" y="110" as="sourcePoint" />
            <mxPoint x="130" y="510" as="targetPoint" />
          </mxGeometry>
        </mxCell>
        <mxCell id="HlJgQoIas5wDGxNCZzIt-2" value="x: int:&lt;div&gt;&quot;enter the first integer number: &quot;&lt;/div&gt;" style="shape=card;whiteSpace=wrap;html=1;" vertex="1" parent="1">
          <mxGeometry x="65" y="140" width="130" height="70" as="geometry" />
        </mxCell>
        <mxCell id="HlJgQoIas5wDGxNCZzIt-5" value="" style="edgeStyle=none;curved=1;rounded=0;orthogonalLoop=1;jettySize=auto;html=1;fontSize=12;startSize=8;endSize=8;" edge="1" parent="1" source="HlJgQoIas5wDGxNCZzIt-2" target="HlJgQoIas5wDGxNCZzIt-3">
          <mxGeometry relative="1" as="geometry">
            <mxPoint x="130" y="210" as="sourcePoint" />
            <mxPoint x="130" y="510" as="targetPoint" />
          </mxGeometry>
        </mxCell>
        <mxCell id="HlJgQoIas5wDGxNCZzIt-3" value="y: int:&lt;div&gt;&quot;enter the second integer number: &quot;&lt;/div&gt;" style="shape=card;whiteSpace=wrap;html=1;" vertex="1" parent="1">
          <mxGeometry x="65" y="240" width="130" height="70" as="geometry" />
        </mxCell>
        <mxCell id="HlJgQoIas5wDGxNCZzIt-7" value="" style="edgeStyle=none;curved=1;rounded=0;orthogonalLoop=1;jettySize=auto;html=1;fontSize=12;startSize=8;endSize=8;" edge="1" parent="1" source="HlJgQoIas5wDGxNCZzIt-3" target="HlJgQoIas5wDGxNCZzIt-6">
          <mxGeometry relative="1" as="geometry">
            <mxPoint x="130" y="310" as="sourcePoint" />
            <mxPoint x="130" y="510" as="targetPoint" />
          </mxGeometry>
        </mxCell>
        <mxCell id="HlJgQoIas5wDGxNCZzIt-10" value="" style="edgeStyle=none;curved=1;rounded=0;orthogonalLoop=1;jettySize=auto;html=1;fontSize=12;startSize=8;endSize=8;entryX=0.5;entryY=1;entryDx=0;entryDy=0;" edge="1" parent="1" source="HlJgQoIas5wDGxNCZzIt-6" target="HlJgQoIas5wDGxNCZzIt-9">
          <mxGeometry relative="1" as="geometry" />
        </mxCell>
        <mxCell id="HlJgQoIas5wDGxNCZzIt-13" value="" style="edgeStyle=none;curved=1;rounded=0;orthogonalLoop=1;jettySize=auto;html=1;fontSize=12;startSize=8;endSize=8;entryX=0.5;entryY=1;entryDx=0;entryDy=0;" edge="1" parent="1" source="HlJgQoIas5wDGxNCZzIt-6" target="HlJgQoIas5wDGxNCZzIt-12">
          <mxGeometry relative="1" as="geometry" />
        </mxCell>
        <mxCell id="HlJgQoIas5wDGxNCZzIt-6" value="x&amp;gt;y?" style="rhombus;whiteSpace=wrap;html=1;" vertex="1" parent="1">
          <mxGeometry x="90" y="340" width="80" height="80" as="geometry" />
        </mxCell>
        <mxCell id="HlJgQoIas5wDGxNCZzIt-17" value="" style="edgeStyle=none;curved=1;rounded=0;orthogonalLoop=1;jettySize=auto;html=1;fontSize=12;startSize=8;endSize=8;entryX=0.25;entryY=0;entryDx=0;entryDy=0;exitX=0.525;exitY=0.9;exitDx=0;exitDy=0;exitPerimeter=0;" edge="1" parent="1" source="HlJgQoIas5wDGxNCZzIt-8" target="pcoZj8P89DkyJ81WNdUz-6">
          <mxGeometry relative="1" as="geometry">
            <mxPoint x="20" y="650" as="targetPoint" />
          </mxGeometry>
        </mxCell>
        <mxCell id="HlJgQoIas5wDGxNCZzIt-8" value="x" style="shape=document;whiteSpace=wrap;html=1;boundedLbl=1;" vertex="1" parent="1">
          <mxGeometry x="-70" y="450" width="120" height="80" as="geometry" />
        </mxCell>
        <mxCell id="HlJgQoIas5wDGxNCZzIt-11" value="" style="edgeStyle=none;curved=1;rounded=0;orthogonalLoop=1;jettySize=auto;html=1;fontSize=12;startSize=8;endSize=8;" edge="1" parent="1" source="HlJgQoIas5wDGxNCZzIt-9" target="HlJgQoIas5wDGxNCZzIt-8">
          <mxGeometry relative="1" as="geometry" />
        </mxCell>
        <mxCell id="HlJgQoIas5wDGxNCZzIt-9" value="yes" style="text;html=1;align=center;verticalAlign=middle;whiteSpace=wrap;rounded=0;fontSize=16;" vertex="1" parent="1">
          <mxGeometry x="-40" y="350" width="60" height="30" as="geometry" />
        </mxCell>
        <mxCell id="HlJgQoIas5wDGxNCZzIt-15" value="" style="edgeStyle=none;curved=1;rounded=0;orthogonalLoop=1;jettySize=auto;html=1;fontSize=12;startSize=8;endSize=8;" edge="1" parent="1" source="HlJgQoIas5wDGxNCZzIt-12" target="HlJgQoIas5wDGxNCZzIt-14">
          <mxGeometry relative="1" as="geometry" />
        </mxCell>
        <mxCell id="HlJgQoIas5wDGxNCZzIt-12" value="no" style="text;html=1;align=center;verticalAlign=middle;whiteSpace=wrap;rounded=0;fontSize=16;" vertex="1" parent="1">
          <mxGeometry x="240" y="350" width="60" height="30" as="geometry" />
        </mxCell>
        <mxCell id="HlJgQoIas5wDGxNCZzIt-19" value="" style="edgeStyle=none;curved=1;rounded=0;orthogonalLoop=1;jettySize=auto;html=1;fontSize=12;startSize=8;endSize=8;entryX=0.75;entryY=0;entryDx=0;entryDy=0;" edge="1" parent="1" source="HlJgQoIas5wDGxNCZzIt-14" target="pcoZj8P89DkyJ81WNdUz-6">
          <mxGeometry relative="1" as="geometry">
            <mxPoint x="270" y="690" as="targetPoint" />
          </mxGeometry>
        </mxCell>
        <mxCell id="HlJgQoIas5wDGxNCZzIt-14" value="y" style="shape=document;whiteSpace=wrap;html=1;boundedLbl=1;" vertex="1" parent="1">
          <mxGeometry x="210" y="450" width="120" height="80" as="geometry" />
        </mxCell>
      </root>
    </mxGraphModel>
  </diagram>
</mxfile>
